<svg xmlns="http://www.w3.org/2000/svg" width="320" height="320" fill="none"><path fill="#fff" d="M0 0h320v320H0z"/><path d="M-91.003-91.003h501v501h-501v-501z" fill="#fff"/><path d="M-91.003-91.003v-1h-1v1h1zm501 0h1v-1h-1v1zm0 501v1h1v-1h-1zm-501 0h-1v1h1v-1zm0-500h501v-2h-501v2zm500-1v501h2v-501h-2zm1 500h-501v2h501v-2zm-500 1v-501h-2v501h2z" fill="#CCC"/><path fill-rule="evenodd" clip-rule="evenodd" d="M163.49 120.31c6.21-8.18 14.84-8.04 14.84-8.04s1.28 7.51-4.88 14.92c-6.58 7.91-14.07 6.53-14.07 6.53s-1.41-6.14 4.11-13.41zM160.16 139.37c3.19 0 9.12-4.48 16.83-4.48 13.28 0 18.5 9.54 18.5 9.54s-10.22 5.22-10.22 17.9c0 14.3 12.73 19.23 12.73 19.23s-8.9 25.04-20.91 25.04c-5.52 0-9.81-3.72-15.63-3.72-5.93 0-11.81 3.86-15.64 3.86-10.97 0-24.84-23.75-24.84-42.85 0-18.79 11.73-29 22.74-29 7.17 0 12.72 4.48 16.44 4.48z" fill="#000"/><path stroke="#CCC" d="M-90.5-90.5h500v500h-500z"/></svg>