<svg xmlns="http://www.w3.org/2000/svg" width="320" height="320" fill="none"><path fill="#fff" d="M0 0h320v320H0z"/><path d="M-91.003-91.003h501v501h-501v-501z" fill="#fff"/><path d="M-91.003-91.003v-1h-1v1h1zm501 0h1v-1h-1v1zm0 501v1h1v-1h-1zm-501 0h-1v1h1v-1zm0-500h501v-2h-501v2zm500-1v501h2v-501h-2zm1 500h-501v2h501v-2zm-500 1v-501h-2v501h2z" fill="#CCC"/><path d="M105.8 147.21c8.44.02 18.83 2.31 18.83 10.71v20.09h-14.89v-8.67c-.01-.03-3.61 1.28-6.38 2.13-1.86.51-3.27 1.57-3.39 3.47-.15 1.6 1.67 3.07 1.65 3.07H87.04c-.02 0-3.25-1.17-3.15-4.65.3-6.64 5.47-9.08 18.2-10.55 6.86-.85 7.63-1.51 7.64-3.23-.01-1.41-.84-3.01-4.73-3.07-5.6 0-5.21 3.79-5.2 3.78H85.54c-.01-.01.15-13.07 20.26-13.08zm45.14.31c-4.95.72-6.69 4.82-6.7 4.81v-4.26h-13.87v29.94h15.13v-14.34c.02-2.53.73-3.67 1.65-4.57 1.04-1.07 2.88-1.82 4.88-1.81h4.25v-9.22c.01-.01-2.17-1.01-5.34-.55zm30.18-6.54h-14.97v7.09h-6.22v9.22h6.22v12.21c.01 2.63-.04 4.78 1.89 6.85 1.69 1.73 3.91 1.65 6.54 1.66h6.54v-20.72h8.98v-9.22h-8.98v-7.09zm32.69 6.47c25.11.28 21.05 22.98 21.04 23.01h-26.79v7.56h-10.95c.04 0-4.49-4.08-4.41-12.13.16-18.79 20.32-18.46 21.11-18.44zm6.54 15.44c-.02-.03.63-6.14-6.54-6.14-6.91-.04-6.15 6.12-6.15 6.14h12.69z" fill="#000"/><path stroke="#CCC" d="M-90.5-90.5h500v500h-500z"/></svg>