<svg xmlns="http://www.w3.org/2000/svg" width="320" height="320" fill="none"><path fill="#fff" d="M0 0h320v320H0z"/><path d="M-91.003-91.003h501v501h-501v-501z" fill="#fff"/><path d="M-91.003-91.003v-1h-1v1h1zm501 0h1v-1h-1v1zm0 501v1h1v-1h-1zm-501 0h-1v1h1v-1zm0-500h501v-2h-501v2zm500-1v501h2v-501h-2zm1 500h-501v2h501v-2zm-500 1v-501h-2v501h2z" fill="#CCC"/><path d="M183.81 152.06c.05-.17.09-.17.09-.17s.04 0 .08.13l2.14 9.94c.05.13 0 .17 0 .17h-.09l-6.34.04c-.08 0-.21-.08-.21-.08s-.04-.05.04-.35l4.29-9.68zM112.64 152.1c.04-.08.08-.08.08-.08s.04 0 .05.07l2.18 9.82c.04.13 0 .17 0 .17s-.04.04-.08.04l-6.3-.04c-.22 0-.26-.04-.26-.04s-.05-.08.04-.21l4.29-9.73z" fill="#001522"/><path fill-rule="evenodd" clip-rule="evenodd" d="M57.75 134.07h203.49v50.87H57.75v-50.87zm195.4 28.1c.13 0 .17-.08.17-.08s.13-.13.13-.21v-8.66c0-.26-.13-.3-.13-.3s-.09-.04-.38-.04h-11.15v-10.29c0-.17-.08-.25-.08-.25s-.05-.05-.22-.05h-8.53c-.26 0-.35.05-.35.05s-.04.08-.04.21v10.24c0 .09-.09.13-.09.13s0 .04-.09.04H220.9c-.09 0-.13.04-.13.04s-.08.12-.08.21v8.57c0 .26.08.35.08.35s.05.04.26.04h11.23a.2.2 0 01.17.08s.13.09.13.22v11.7c0 .22.04.26.04.26s.09.09.22.09h8.71c.13 0 .17-.09.17-.09s.08-.05.08-.22v-11.7c0-.22.13-.26.13-.26s.08-.08.26-.08h10.98zm-33.92 12.3s.05-.08.09-.34l.85-6.38c0-.21-.04-.25-.04-.25s-.08-.09-.26-.09h-8.74c-.34 0-.43-.04-.43-.04s-.12-.04-.08-.3l3.3-23.79c.04-.17 0-.3 0-.3s-.08-.04-.3-.04h-8.49s-.08.12-.12.51l-4.38 30.43c-.04.38.04.55.04.55s.13.13.64.13h17.67c.21 0 .25-.09.25-.09zm-30.27.13h7.85c.12 0 .09-.05.09-.05s.04-.04.04-.13l-6.47-31.2c-.04-.13-.08-.17-.08-.17s-.13-.13-.34-.13h-9.65c-.26 0-.34.04-.34.04s-.08.13-.17.18l-15.56 31.07c-.13.18-.09.26-.09.26s.09.13.3.09h8.83c.09 0 .26-.04.26-.04s.09-.04.13-.17l2.32-4.93c.09-.26.26-.43.26-.43s.13-.13.34-.13h10.21c.26 0 .48.13.48.13s.09.13.17.39l1.03 4.84c.04.25.09.3.09.3s.13.16.3.08zm-28.9-.04c.21 0 .26-.05.26-.05s.09-.13.13-.3l4.42-30.99c0-.08-.04-.13-.04-.13s-.05-.04-.22-.04l-8.19-.09c-.13 0-.17.09-.17.09s-.08.04-.08.17l-2.49 17.14c-.09.39-.21.39-.21.39s-.13.05-.3-.3l-9.82-17.23c-.04-.13-.13-.17-.13-.17s-.08-.09-.21-.09h-8.71c-.12 0-.25.13-.25.13s-.09.04-.13.21l-4.29 30.73c-.04.18.13.35.13.35s.08.08.21.08h7.8c.13 0 .21-.04.21-.04s.05-.04.09-.26l2.7-18.98c0-.13.08-.13.08-.13s.04 0 .13.09l10.89 19.33c.04.05.08.09.08.09h8.11zm-41.94-.04l7.63-.05c.09 0 .13-.04.13-.04s.08-.04.08-.17l-6.6-31.03c-.04-.13-.08-.17-.08-.17s-.13-.13-.3-.13h-10.12s-.13.04-.21.22l-15.4 30.94c-.08.17-.04.3-.04.3s.04.13.3.08h8.88c.13 0 .26-.08.26-.08s.04-.05.13-.22l2.14-4.59c.13-.29.3-.42.3-.42s.13-.17.34-.17h10.89s.09.04.09.17l1.2 4.93c.04.3.08.34.08.34s.12.09.3.09zM90.56 174s.17-.25.21-.6l1.2-6.9c.09-.38-.04-.51-.04-.51s-.13-.04-.73.26l-.257.079c.009-.004.008-.004-.003.001l.004-.001c-.125.062-2.326 1.094-5.064 1.291-2.66.13-5.19-.6-6.82-2.01-2.4-2.02-3.51-5.4-2.44-9.43 1.2-4.55 5.19-6.34 8.62-6.56 0 0 4.5-.35 8.36 2.4.6.38.69.34.69.34s.17-.13.21-.39l1.2-6.3c.17-.68.13-.77.13-.77s-.09-.17-.73-.6c-1.28-.86-3-1.41-3-1.41a22.04 22.04 0 00-10.42-.99c-3.99.51-8.07 2.74-10.68 5.87-1.07 1.33-5.49 7.58-3.26 16.37 1.51 5.87 6.22 10.41 13.64 11.23 0 0 4.59.56 8.71-1.11.3-.09.47-.26.47-.26z" fill="#001522"/><path stroke="#CCC" d="M-90.5-90.5h500v500h-500z"/></svg>