<svg xmlns="http://www.w3.org/2000/svg" width="320" height="320" fill="none"><path fill="#fff" d="M0 0h320v320H0z"/><path d="M-91.003-91.003h501v501h-501v-501z" fill="#fff"/><path d="M-91.003-91.003v-1h-1v1h1zm501 0h1v-1h-1v1zm0 501v1h1v-1h-1zm-501 0h-1v1h1v-1zm0-500h501v-2h-501v2zm500-1v501h2v-501h-2zm1 500h-501v2h501v-2zm-500 1v-501h-2v501h2z" fill="#CCC"/><path d="M128.97 140.17c-2.95 0-8.15 3.37-8.15 10.92h76.56c1.04-11.21-6.85-10.92-6.85-10.92h-61.56zm-8.81 14.9s-.01 2.32-.01 3.55c0 2.4 2.4 5.29 6.05 5.29 2.29 0 18.55.03 18.55.03l-.59 4.55h-25.11l-1.33 10.33h29.43c2.47 0 8.24-2.01 9.22-7.89 0 0 1.14-9.67 1.18-10.03.15-1.89-1-5.83-6.1-5.83h-31.29zm40.05 0h36.74l-.81 4.14s-.82 4.7-6.5 4.7h-17.99l-1.7 14.92h-12.47l2.73-23.76zm38.65-3.98h37.69c1.7-7.31-1.84-10.92-5.54-10.92-4.36 0-15.01.01-30.76.01l-1.39 10.91zm9.29 27.74h-12.47l2.73-23.75h12.61l-2.87 23.75zm25.08 0h-12.47l2.73-23.75h12.62l-2.88 23.75zM84.82 155.07h33.71l-1.11 8.84H96.69l-.66 4.58h20.8l-1.26 10.33H82.01l2.81-23.75zm1.7-14.9h33.71l-1.44 10.92H85.34l1.18-10.92z" fill="#000"/><path stroke="#CCC" d="M-90.5-90.5h500v500h-500z"/></svg>