<svg xmlns="http://www.w3.org/2000/svg" width="320" height="320" fill="none"><path fill="#fff" d="M0 0h320v320H0z"/><path d="M-91.003-91.003h501v501h-501v-501z" fill="#fff"/><path d="M-91.003-91.003v-1h-1v1h1zm501 0h1v-1h-1v1zm0 501v1h1v-1h-1zm-501 0h-1v1h1v-1zm0-500h501v-2h-501v2zm500-1v501h2v-501h-2zm1 500h-501v2h501v-2zm-500 1v-501h-2v501h2z" fill="#CCC"/><path d="M44.819 145.892v3.683c0 .24-.168.401-.418.401H27.956v7.523H41.53c.25 0 .417.161.417.401v3.682c0 .24-.167.401-.417.401H27.956v11.125c0 .24-.167.4-.417.4h-4.122c-.25 0-.417-.16-.417-.4v-27.216c0-.24.167-.4.417-.4h20.984c.252.002.417.16.417.4zM77.92 173.508h-4.464c-.245 0-.41-.121-.47-.361a105.813 105.813 0 00-2.13-7.165H57.162a95.586 95.586 0 00-2.11 7.165c-.06.24-.225.361-.47.361h-4.3c-.285 0-.45-.16-.369-.44 2.58-8.926 6.51-18.772 10.482-27.057.185-.381.41-.519.797-.519h5.814c.39 0 .615.141.797.519 4.013 8.265 7.882 18.131 10.482 27.057.085.28-.08.44-.365.44zm-8.576-11.848c-1.493-4.042-3.152-8.084-4.85-11.767h-.963a165.542 165.542 0 00-4.871 11.767h10.684zM85.411 159.743c0-8.67 5.975-14.743 14.501-14.743h.626c5.35 0 9.487 2.597 11.681 6.352.148.24.104.44-.147.559l-3.677 1.737c-.251.121-.564.121-.732-.18-1.545-2.558-3.866-3.916-7.293-3.916h-.628c-5.37 0-9.069 4.074-9.069 9.989 0 5.932 3.637 9.907 9.07 9.907h.627c3.51 0 5.559-1.139 7.125-2.876.21-.219.44-.259.69-.14l3.781 1.757c.148.079.21.18.21.279 0 .099-.042.18-.124.299-2.319 3.236-6.498 5.233-11.597 5.233h-.628c-8.668.007-14.416-5.686-14.416-14.257zM145.285 169.425v3.683c0 .24-.168.4-.419.4h-21.995c-.251 0-.419-.16-.419-.4v-27.216c0-.24.168-.4.419-.4h21.619c.251 0 .419.16.419.4v3.683c0 .24-.168.401-.419.401h-17.051v7.283h13.867c.251 0 .419.161.419.401v3.643c0 .24-.168.401-.419.401h-13.867v7.323h17.429c.249-.003.417.158.417.398zM182.833 165.824c0 4.903-3.884 7.684-10.742 7.684h-14.214c-.248 0-.414-.16-.414-.4v-27.216c0-.24.166-.4.414-.4h12.952c6.672 0 10.308 2.561 10.308 7.244 0 3.081-1.612 5.103-4.875 6.044 4.586.94 6.571 3.603 6.571 7.044zm-12.106-15.969h-8.348v7.524h8.348c3.738 0 5.453-1.181 5.453-3.762 0-2.582-1.715-3.762-5.453-3.762zm7.065 15.548c0-2.601-1.776-3.782-5.68-3.782h-9.73v7.524h9.73c3.965 0 5.68-1.119 5.68-3.742zM191.459 159.5c0-8.428 5.8-14.5 14.911-14.5h.623c9.114 0 14.911 6.072 14.911 14.5s-5.8 14.5-14.911 14.5h-.623c-9.111 0-14.911-6.072-14.911-14.5zm15.534 9.947c5.943 0 9.693-3.935 9.693-9.945 0-6.012-3.748-9.945-9.693-9.945h-.623c-5.943 0-9.693 3.935-9.693 9.945 0 6.013 3.748 9.945 9.693 9.945h.623zM230.53 159.5c0-8.428 5.799-14.5 14.911-14.5h.622c9.114 0 14.911 6.072 14.911 14.5s-5.799 14.5-14.911 14.5h-.622c-9.112 0-14.911-6.072-14.911-14.5zm15.533 9.947c5.943 0 9.693-3.935 9.693-9.945 0-6.012-3.748-9.945-9.693-9.945h-.622c-5.943 0-9.693 3.935-9.693 9.945 0 6.013 3.747 9.945 9.693 9.945h.622zM296.654 173.508h-5.382c-.353 0-.5-.079-.73-.339-3.774-4.262-8.239-8.504-12.034-11.627h-2.42v11.566c0 .24-.168.4-.418.4h-4.13c-.25 0-.418-.16-.418-.4v-27.216c0-.24.168-.4.418-.4h4.13c.25 0 .418.16.418.4v11.046h2.461c4.068-3.522 7.822-7.323 10.887-11.147.209-.26.376-.299.627-.299h5.089c.251 0 .375.121.375.279 0 .08-.042.181-.147.3-4.484 5.304-8.926 9.645-13.036 13.006a123.353 123.353 0 0114.537 13.927c.232.264.108.504-.227.504z" fill="#000"/><path stroke="#CCC" d="M-90.5-90.5h500v500h-500z"/></svg>