<svg xmlns="http://www.w3.org/2000/svg" width="320" height="320" fill="none"><path fill="#fff" d="M0 0h320v320H0z"/><path d="M-92.003-91.003h501v501h-501v-501z" fill="#fff"/><path d="M-92.003-91.003v-1h-1v1h1zm501 0h1v-1h-1v1zm0 501v1h1v-1h-1zm-501 0h-1v1h1v-1zm0-500h501v-2h-501v2zm500-1v501h2v-501h-2zm1 500h-501v2h501v-2zm-500 1v-501h-2v501h2z" fill="#CCC"/><path d="M111.79 150.65H90.34v6.36h15.21c-.75 8.92-8.18 12.73-15.18 12.73-8.97 0-16.79-7.05-16.79-16.94 0-9.63 7.46-17.05 16.81-17.05 7.21 0 11.47 4.6 11.47 4.6l4.46-4.61s-5.72-6.37-16.15-6.37c-13.28 0-23.56 11.21-23.56 23.32 0 11.86 9.67 23.43 23.9 23.43 12.52 0 21.68-8.57 21.68-21.25-.01-2.67-.4-4.22-.4-4.22zM129.36 146.04c-8.8 0-15.1 6.88-15.1 14.9 0 8.14 6.12 15.15 15.21 15.15 8.23 0 14.97-6.29 14.97-14.97 0-9.95-7.85-15.08-15.08-15.08zm.09 5.91c4.33 0 8.43 3.5 8.43 9.14 0 5.52-4.08 9.12-8.45 9.12-4.8 0-8.58-3.84-8.58-9.16 0-5.22 3.74-9.1 8.6-9.1zM162.21 146.04c-8.8 0-15.1 6.88-15.1 14.9 0 8.14 6.12 15.15 15.21 15.15 8.23 0 14.97-6.29 14.97-14.97 0-9.95-7.84-15.08-15.08-15.08zm.09 5.91c4.33 0 8.43 3.5 8.43 9.14 0 5.52-4.08 9.12-8.45 9.12-4.8 0-8.58-3.84-8.58-9.16 0-5.22 3.74-9.1 8.6-9.1zM194.44 146.06c-8.08 0-14.42 7.07-14.42 15.01 0 9.04 7.36 15.04 14.29 15.04 4.28 0 6.56-1.7 8.24-3.65v2.96c0 5.18-3.15 8.29-7.9 8.29-4.59 0-6.89-3.41-7.69-5.35l-5.78 2.41c2.05 4.33 6.17 8.85 13.52 8.85 8.03 0 14.15-5.06 14.15-15.67v-27h-6.3v2.55c-1.95-2.08-4.6-3.44-8.11-3.44zm.58 5.89c3.96 0 8.03 3.38 8.03 9.16 0 5.87-4.06 9.1-8.11 9.1-4.31 0-8.31-3.5-8.31-9.05-.01-5.77 4.15-9.21 8.39-9.21zM236.85 146.02c-7.62 0-14.02 6.06-14.02 15.01 0 9.46 7.13 15.08 14.75 15.08 6.36 0 10.26-3.48 12.59-6.59l-5.19-3.46c-1.35 2.09-3.6 4.14-7.36 4.14-4.22 0-6.17-2.31-7.37-4.55l20.15-8.36-1.05-2.45c-1.95-4.81-6.49-8.82-12.5-8.82zm.26 5.78c2.74 0 4.72 1.46 5.56 3.21l-13.46 5.62c-.57-4.35 3.55-8.83 7.9-8.83zM219.85 130.92h-6.62v44.29h6.62v-44.29z" fill="#000"/><path stroke="#CCC" d="M-91.5-90.5h500v500h-500z"/></svg>