<svg xmlns="http://www.w3.org/2000/svg" width="320" height="320" fill="none"><path fill="#fff" d="M0 0h320v320H0z"/><path d="M-91.003-91.003h501v501h-501v-501z" fill="#fff"/><path d="M-91.003-91.003v-1h-1v1h1zm501 0h1v-1h-1v1zm0 501v1h1v-1h-1zm-501 0h-1v1h1v-1zm0-500h501v-2h-501v2zm500-1v501h2v-501h-2zm1 500h-501v2h501v-2zm-500 1v-501h-2v501h2z" fill="#CCC"/><path d="M55.67 140.56H40.61l.08 14.13h-4.93v-30.74h4.93l-.08 12.42h15.06l-.04-12.42h4.72v30.74h-4.72l.04-14.13zM80.52 143.94c0-4.8-1.96-7.9-5.82-7.9-3.83 0-5.82 3.05-5.82 7.86 0 4.8 1.99 7.73 5.82 7.73 3.87 0 5.82-2.89 5.82-7.69zm-.04 7.94c-.94 1.22-2.97 3.42-6.72 3.42-5.7 0-9.81-3.95-9.81-11.4 0-5.9 3.42-11.64 9.97-11.64 3.62 0 5.66 2.08 6.52 3.3l.12-2.73h4.36v21.87h-4.36l-.08-2.82zM103.98 132.82h5.41l5.78 17.43 5.75-17.43h4.92l-8.06 21.87h-5.66l-8.14-21.87zM143.1 143.94c0-4.8-1.96-7.9-5.82-7.9-3.83 0-5.82 3.05-5.82 7.86 0 4.8 1.99 7.73 5.82 7.73 3.86 0 5.82-2.89 5.82-7.69zm-.04 7.94c-.94 1.22-2.97 3.42-6.72 3.42-5.7 0-9.81-3.95-9.81-11.4 0-5.9 3.42-11.64 9.97-11.64 3.63 0 5.66 2.08 6.52 3.3l.12-2.73h4.35v21.87h-4.35l-.08-2.82zM182.16 143.94c0-4.8-1.95-7.9-5.82-7.9-3.83 0-5.82 3.05-5.82 7.86 0 4.8 1.99 7.73 5.82 7.73 3.87 0 5.82-2.89 5.82-7.69zm-16.57-.04c0-5.9 3.46-11.64 9.93-11.64 3.54 0 5.54 2 6.47 3.26l-.17-12.5h4.72v31.68h-4.35l-.12-2.81c-.98 1.42-3.01 3.42-6.68 3.42-5.81-.01-9.8-3.96-9.8-11.41zM43.15 186.19h9.69l-4.8-14.66-4.89 14.66zm2.24-19.14h5.9l10.99 30.82H56.7l-2.69-8.02H41.96l-2.73 8.02h-5.17l11.33-30.82zM78.98 176.01h3.09l.25-5.94h4.36v5.94H91v3.58h-4.32l-.04 11.19c0 1.83-.04 3.59 2.4 3.59 1.06 0 2.16-.08 2.16-.08l.2 3.62s-1.83.37-4.19.37c-3.91 0-5.21-1.95-5.21-5.98v-12.7h-3.01v-3.59h-.01zM103.97 167.13h6.76l9.53 25.57 9.69-25.57h6.55v30.74h-4.88l.24-24.18-9.08 24.18h-5.46l-9.11-24.55.36 24.55h-4.6v-30.74zM140.91 190.3v-14.29h4.76v12.3c0 2.89.33 6.19 4.19 6.19 2.36 0 3.83-1.38 4.6-3.38.45-1.18.53-2.56.53-6.84v-8.26h4.68v21.86h-4.36l-.12-2.93c-.73 1.26-2.73 3.55-6.84 3.55-5.16-.01-7.44-3.93-7.44-8.2zM162.7 192.46l4.68-.77c0 .49.7 3.3 4.76 3.3 2.81 0 4.2-1.02 4.2-2.64 0-1.83-1.42-2.73-4.92-3.67-5.82-1.51-7.73-3.62-7.73-6.96 0-3.5 2.93-6.35 8.43-6.35 7.86 0 8.47 5.62 8.47 5.62l-4.44.85c0-.28-.41-2.92-4.19-2.92-2.16 0-3.63.98-3.63 2.56 0 1.55 1.26 2.45 5.29 3.46 5.42 1.38 7.45 3.58 7.45 6.92 0 3.66-2.56 6.68-9.16 6.68-8.64-.01-9.21-6.08-9.21-6.08zM266.57 192.46l4.68-.77c0 .49.69 3.3 4.76 3.3 2.81 0 4.19-1.02 4.19-2.64 0-1.83-1.42-2.73-4.93-3.67-5.82-1.51-7.74-3.62-7.74-6.96 0-3.5 2.93-6.35 8.43-6.35 7.86 0 8.47 5.62 8.47 5.62l-4.44.85c0-.28-.41-2.92-4.19-2.92-2.16 0-3.63.98-3.63 2.56 0 1.55 1.27 2.45 5.29 3.46 5.42 1.38 7.45 3.58 7.45 6.92 0 3.66-2.56 6.68-9.16 6.68-8.61-.01-9.18-6.08-9.18-6.08zM188.71 184.6h10.71c-.04-2.98-1.79-5.62-5.05-5.62-3.01 0-5.25 2.28-5.66 5.62zm-4.72 2.44c0-6.51 3.54-11.68 10.5-11.68 6.07 0 9.45 4.12 9.53 10.22 0 .89-.04 1.75-.12 2.32h-15.23c.12 4.15 2.36 6.88 5.95 6.88 3.87 0 5-2.81 5-2.81l4.15 1.34s-2.28 5.21-9.2 5.21c-7.12.01-10.58-4.76-10.58-11.48zM207.83 190.3v-14.29h4.77v12.3c0 2.89.33 6.19 4.2 6.19 2.36 0 3.82-1.38 4.6-3.38.45-1.18.53-2.56.53-6.84v-8.26h4.69v21.86h-4.36l-.12-2.93c-.73 1.26-2.73 3.55-6.84 3.55-5.18-.01-7.47-3.93-7.47-8.2zM230.9 176.01h4.36l.08 3.1c.93-1.51 2.97-3.67 6.8-3.67 3.87 0 5.78 2.16 6.64 3.95.89-1.62 2.97-3.95 7.08-3.95 5.7 0 7.7 3.91 7.7 8.67v13.76h-4.76v-12.42c0-2.73-.37-6.11-4.32-6.11-2.07 0-3.46 1.1-4.23 3.14-.53 1.43-.65 2.89-.65 7.53v7.86h-4.72v-12.42c0-2.73-.37-6.11-4.27-6.11-2.12 0-3.58 1.14-4.36 3.14-.57 1.47-.65 2.81-.65 7.08v8.3h-4.68v-21.85h-.02zM100.99 132.34c-.69 0-1.36.05-2.32.16-2.52.45-4.11 2.36-4.88 4.15l-.12-3.83H89.4v21.87H94v-7.45c0-3.05.04-5.45.69-6.76.9-2.2 2.77-3.26 4.8-3.26.73 0 1.37.12 1.5.16v-5.04zM163.65 132.34c-.69.01-1.35.05-2.3.16-2.52.45-4.11 2.36-4.89 4.15l-.12-3.83h-4.27v21.87h4.6v-7.45c0-3.05.04-5.45.69-6.76.9-2.2 2.77-3.26 4.8-3.26.72 0 1.35.12 1.49.16v-5.04zM76.34 175.53c-.66.01-1.32.05-2.25.16-2.52.45-4.11 2.36-4.88 4.15l-.12-3.83h-4.27v21.86h4.6v-7.45c0-3.05.04-5.46.69-6.76.9-2.2 2.77-3.26 4.81-3.26.65 0 1.22.1 1.43.15v-5.02h-.01zM231.17 120.47l.69.69-45.44 45.45-.69-.69 45.44-45.45z" fill="#000"/><path stroke="#CCC" d="M-90.5-90.5h500v500h-500z"/></svg>