<svg xmlns="http://www.w3.org/2000/svg" width="320" height="320" fill="none"><path fill="#fff" d="M0 0h320v320H0z"/><path d="M-91.003-91.003h501v501h-501v-501z" fill="#fff"/><path d="M-91.003-91.003v-1h-1v1h1zm501 0h1v-1h-1v1zm0 501v1h1v-1h-1zm-501 0h-1v1h1v-1zm0-500h501v-2h-501v2zm500-1v501h2v-501h-2zm1 500h-501v2h501v-2zm-500 1v-501h-2v501h2z" fill="#CCC"/><path d="M57.17 129.69h10.67l6.46 22.19 6.96-22.19h10.37v30.5h-6.49v-26.16l-8.31 26.16h-5.4l-8.15-26.16v26.16h-6.11v-30.5zM113.86 129.68l10.59 30.5h-6.58l-2.19-6.58h-12.06l-2.28 6.58H95.1l11.01-30.5h7.75zm.17 18.99l-4.22-12.99-4.51 12.99h8.73zM147.02 139.05c-.04-.8-.08-1.9-.84-3.08-1.27-2.02-3.67-2.36-5.11-2.36-7.42 0-8.9 6.92-8.9 11.6 0 2.07.3 5.78 2.53 8.18 1.52 1.69 3.54 2.61 7.17 2.61 3.16 0 4.26-.38 4.98-.59V149h-5.91v-5.06h12.45v15.23c-1.9.63-5.02 1.69-11.14 1.69-6.96 0-10.55-1.69-12.95-4.05-3.42-3.33-4.05-8.18-4.05-11.39 0-10.8 6.75-16.58 15.99-16.58 3.92 0 7.97 1.1 10.38 3.84 2.02 2.32 2.15 4.72 2.19 6.37h-6.79zM160.35 129.69h9.44l11.44 24v-24h6.07v30.5h-8.98l-11.82-25.32v25.32h-6.15v-30.5zM200.75 129.77v18.56c0 3.33.25 7.51 6.62 7.51 1.05 0 4.22-.04 5.91-2.66.63-.93.97-2.11.97-5.19v-18.22h6.37v19.03c0 9.07-7.21 11.98-13.37 11.98-3.04 0-8.6-.68-11.47-5.27-1.48-2.32-1.56-4.68-1.56-7.51v-18.22h6.53v-.01zM227.37 129.69h10.67l6.45 22.19 6.96-22.19h10.38v30.5h-6.49v-26.16l-8.31 26.16h-5.4l-8.15-26.16v26.16h-6.11v-30.5zM61.82 176.46c1.93 0 3.54.13 4.65 1.46.71.85.82 1.82.82 2.5 0 1.56-.65 2.87-1.71 3.56-.98.63-2.33.63-3.04.63h-1.95v5.21h-2.91v-13.36h4.14zm-1.29 6.02h1.15c.93 0 2.65 0 2.65-2.04 0-1.82-1.54-1.82-2.35-1.82h-1.45v3.86zM95 176.42h2.87v5.36h5.06v-5.36h2.91v13.4h-2.88v-5.87h-5.09v5.87H95v-13.4zM140.28 176.15c1.43 0 3.39.33 4.71 1.82 1.43 1.63 1.71 3.73 1.71 5.04 0 1.95-.59 4.02-1.69 5.24-1.48 1.67-3.65 1.91-4.76 1.91-1.76 0-3.52-.56-4.74-1.83-1.46-1.56-1.65-3.78-1.65-5.01-.01-3.56 1.6-7.17 6.42-7.17zm-2.43 10.82c.41.56 1.09 1.08 2.43 1.08 1.17 0 1.97-.41 2.5-1.24.44-.67.91-1.7.91-3.84 0-.65-.06-1.58-.33-2.39-.56-1.65-1.69-2.37-3.06-2.37-1.07 0-1.93.44-2.46 1.13-.76.93-.98 2.37-.98 3.89-.01 1.28.2 2.7.99 3.74zM176.94 178.65h-3.99v-2.23h10.86v2.23h-3.98v11.17h-2.89v-11.17zM216.43 176.15c1.43 0 3.39.33 4.71 1.82 1.43 1.63 1.71 3.73 1.71 5.04 0 1.95-.59 4.02-1.69 5.24-1.48 1.67-3.65 1.91-4.76 1.91-1.76 0-3.52-.56-4.74-1.83-1.46-1.56-1.65-3.78-1.65-5.01-.01-3.56 1.6-7.17 6.42-7.17zM214 186.97c.41.56 1.09 1.08 2.43 1.08 1.17 0 1.96-.41 2.5-1.24.44-.67.91-1.7.91-3.84 0-.65-.06-1.58-.33-2.39-.56-1.65-1.69-2.37-3.06-2.37-1.08 0-1.93.44-2.47 1.13-.76.93-.98 2.37-.98 3.89 0 1.28.21 2.7 1 3.74zM253.15 185.54c0 .63-.04 2.54 2.43 2.54 1.56 0 2.54-.74 2.54-1.87 0-1.19-.83-1.39-2.54-1.8-3.19-.8-4.93-1.74-4.93-4.06 0-2.21 1.58-4.15 5.3-4.15 1.39 0 3.04.32 4.04 1.58.76.96.76 2.04.76 2.48h-2.76c-.04-.46-.19-2.04-2.17-2.04-1.33 0-2.2.72-2.2 1.82 0 1.24.98 1.46 2.91 1.95 2.32.56 4.6 1.19 4.6 3.8 0 2.41-2 4.36-5.71 4.36-5.14 0-5.17-3.3-5.19-4.6h2.92v-.01z" fill="#000"/><path stroke="#CCC" d="M-90.5-90.5h500v500h-500z"/></svg>