<svg xmlns="http://www.w3.org/2000/svg" width="320" height="320" fill="none"><path fill="#fff" d="M0 0h320v320H0z"/><path d="M-91.003-91.003h501v501h-501v-501z" fill="#fff"/><path d="M-91.003-91.003v-1h-1v1h1zm501 0h1v-1h-1v1zm0 501v1h1v-1h-1zm-501 0h-1v1h1v-1zm0-500h501v-2h-501v2zm500-1v501h2v-501h-2zm1 500h-501v2h501v-2zm-500 1v-501h-2v501h2z" fill="#CCC"/><path d="M142.64 142.43l-4.37 10.32.01.26h8.64l-4.28-10.58zM174.83 149.87c0-3.9 1.97-7.81 6.92-7.81 4.93 0 6.91 3.9 6.91 7.81 0 3.9-1.98 7.8-6.91 7.8-4.95 0-6.92-3.9-6.92-7.8zM131.22 170.82c0-3.9 1.98-7.81 6.91-7.81 4.94 0 6.92 3.9 6.92 7.81 0 3.9-1.98 7.8-6.92 7.8-4.94.01-6.91-3.89-6.91-7.8zM154.7 171.07h-3.55v7.28h4.62c3.4.05 5.38-.77 5.38-3.51 0-3.04-2.72-3.77-6.45-3.77zM151.15 163.22v6.37h4.57c2.3 0 4.61-.82 4.61-3.24 0-2.59-2.36-3.11-4.69-3.13h-4.49zM117.84 178.33c2.09 0 3.49-.97 4.88-2.37l-5.75-5.97c-1.24.76-3.98 2.61-3.98 4.15 0 2.58 2.35 4.19 4.85 4.19zM115.28 164.5c0 1.27 1.16 2.65 2.01 3.53.182-.169.378-.338.579-.511.967-.834 2.031-1.752 2.031-3.019 0-1.21-1.14-1.86-2.27-1.86-1.22 0-2.35.58-2.35 1.86z" fill="#000"/><path fill-rule="evenodd" clip-rule="evenodd" d="M214 105H105v109h109V105zm-102.79 54.04v-18.09h2.85l7.52 15.53 7.69-15.53h2.72v18.09h-1.7v-16.73h-.14l-7.84 16.65h-1.43l-7.83-16.58h-.24v16.66h-1.6zm26.48-4.55l-2.08 4.55h-1.85l7.85-18.09h2.09l7.9 18.09h-1.94l-2.12-4.55h-9.85zm17.74-13.61h-1.52v18.08h1.52v-18.08zm2.56 13.25c.08 2.94 2.74 5.02 5.9 5.02 3.98 0 7.69-1.18 7.69-5.07 0-3.219-3.077-4.121-6.005-4.979-2.659-.78-5.195-1.523-5.195-3.931 0-2.17 2.55-3.11 4.61-3.11 2.03 0 4.25.56 4.3 2.76h1.92c-.44-3.43-3.85-4.25-6.45-4.25-3.12 0-6.31 1.71-6.31 4.82 0 3.444 3.905 4.543 7.034 5.424.369.104.727.205 1.066.306 1.67.49 3.1 1.33 3.1 3.11 0 2.27-2.55 3.43-4.77 3.43-2.67 0-4.91-.78-4.97-3.53h-1.92zm32.59-4.26c0-5.56-3.15-9.29-8.84-9.29-5.68 0-8.84 3.73-8.84 9.29 0 5.55 3.16 9.29 8.84 9.29 5.69-.01 8.84-3.74 8.84-9.29zm4.45-8.92h-1.94v18.01h1.7v-15.58h.05l10.61 15.58h2.34v-18.1h-1.61v15.77h-.31l-10.84-15.68zm-48.06 29.87c0-5.56-3.16-9.29-8.84-9.29s-8.83 3.73-8.83 9.29c0 5.56 3.15 9.28 8.83 9.28 5.69.01 8.84-3.72 8.84-9.28zm16.11 4.24c0 2.35-1.6 4.77-5.9 4.77v-.01h-7.55v-18.09l7.11.02c2.93 0 5.51 1.61 5.51 4.45 0 1.98-1.59 3.58-3.67 4.03v.05c2.69.39 4.5 2.24 4.5 4.78zm3.56-.24c.19 1.93 1.62 3.64 3.76 3.64 2.52 0 3.49-2.3 3.49-4.45v-12.27h1.69v12.02c0 1.31 0 3.01-1.29 4.42-1.12 1.24-2.77 1.75-4.47 1.75-3.21 0-4.72-2.52-5.1-5.12h1.92v.01zm12.58-13.09v18.1h12.1v-1.48h-10.49v-7.26h9.51v-1.48h-9.51v-6.4h9.56v-1.48h-11.17zm19.97 1.48h-6.83v-1.48h15.36v1.48h-6.81l-.02 16.61h-1.67l-.03-16.61zm-83.677 5.975l.307-.195c.021-.035.051-.06.077-.082.012-.01.024-.019.033-.028l-.068-.074c-1.123-1.232-2.382-2.611-2.382-4.346 0-2.18 2.03-3.3 4.07-3.3 2.01 0 4.15 1.04 4.15 3.23 0 2.12-1.78 3.49-3.41 4.67l5.36 5.53c.84-1.85 1.28-4.75 1.18-6.74h1.8l-.056.591c-.228 2.434-.481 5.132-1.794 7.249l3.97 4.1h-2.4l-2.65-2.8c-1.55 1.75-3.3 2.82-5.7 2.82-3.76 0-6.81-2.07-6.81-5.32 0-2.569 2.299-4.025 4.323-5.305z" fill="#000"/><path stroke="#CCC" d="M-90.5-90.5h500v500h-500z"/></svg>