<svg xmlns="http://www.w3.org/2000/svg" width="320" height="320" fill="none"><path fill="#fff" d="M0 0h320v320H0z"/><path d="M-91.003-91.003h501v501h-501v-501z" fill="#fff"/><path d="M-91.003-91.003v-1h-1v1h1zm501 0h1v-1h-1v1zm0 501v1h1v-1h-1zm-501 0h-1v1h1v-1zm0-500h501v-2h-501v2zm500-1v501h2v-501h-2zm1 500h-501v2h501v-2zm-500 1v-501h-2v501h2z" fill="#CCC"/><path d="M149.67 167.93h22.7c.39 0 .64-.26.64-.64v-2.75c0-.38-.26-.64-.64-.64h-17.02v-10.23h14.45c.39 0 .64-.26.64-.64v-2.75c0-.39-.26-.64-.64-.64h-14.45v-9.66h16.37c.39 0 .64-.26.64-.64v-2.75c0-.38-.26-.64-.64-.64H163l3.53-3.07c.32-.26.32-.58 0-.89l-1.8-1.73c-.32-.32-.64-.32-.96 0l-5.33 5.69h-8.77c-.39 0-.64.26-.64.64v30.7c0 .38.26.64.64.64zM227.85 172.78c-.17-.29-.29-.41-.7-.29-1.35.47-3.63.93-5.68.93-7.14 0-11.97-2.76-18.53-9.69-4.72-4.97-6-6.43-8.31-7.77 5.41-.52 10.18-4 10.18-9.59 0-6.27-5.65-10.43-13.42-10.43h-13.13c-.38 0-.64.26-.64.64v30.7c0 .38.26.64.64.64h5.04c.38 0 .64-.26.64-.64V156.6h1.61c4.6 0 6.35 3.69 13.81 11.71 5.13 5.53 10.06 8.68 18 8.68 4.65 0 8.18-1.43 10.51-2.97.36-.24.42-.42.24-.77l-.26-.47zm-36.64-19.89h-7.27v-13.05h7.27c4.24 0 7.19 2.49 7.19 6.46 0 4.04-2.89 6.59-7.19 6.59z" fill="#000"/><path d="M239.35 153.41h-7.26l-7.6-16.76c-.26-.51-.45-.7-.96-.7h-5.49c-.51 0-.71.19-.96.7l-11.45 25.18c-.26.51-.26.83.06 1.15l2.25 2.3c.32.32.77.32.96-.13l3.43-7.85h14.72l4.34 9.91c.26.51.45.7.96.7h5.62c.38 0 .58-.32.38-.7l-4.5-9.91h5.49c.38 0 .64-.25.64-.64v-2.62c.02-.38-.24-.63-.63-.63zm-25.32 0l5.61-12.85h.07l5.63 12.85h-11.31zM145.31 151.94c0-8.38-5.46-14.45-14.63-15.73-3.15-9.81-12.71-16.95-25.02-16.95-15.35 0-26.65 11.58-26.65 26.35 0 14.78 10.92 26.1 26.71 26.1 2.36 0 4.67-.28 6.77-.75v8.88c0 .38.26.64.64.64h5.04c.39 0 .64-.26.64-.64v-11.9h8.09c11.5-.01 18.41-6.54 18.41-16zm-38.11-15.99c-.39 0-.64.26-.64.64v2.62c0 .39.26.64.64.64h5.3v27.37c-1.76.42-3.63.65-5.49.65-12.4 0-21.06-9.47-21.06-23.15 0-12.54 7.77-21.62 19.84-21.62 8.39 0 15.46 4.86 18.55 12.86H107.2v-.01zm18.27 3.9c.35 1.73.54 3.57.54 5.5 0 5.5-1.28 9.85-3.21 13.75-.19.38-.19.64.19.9l.38.26c.32.19.58.13.9-.19 4.49-4.48 7.51-9.98 7.51-16.69 0-.93-.06-1.85-.17-2.75 4.81 1.7 7.23 6.1 7.23 11.32 0 6.72-3.98 12.09-11.95 12.09h-8.09v-24.19h6.67zM128.85 174.88h-1.94v8.14h2.07v-5.1l4.71 5.1h1.63v-8.14h-2.08v4.74l-4.39-4.74zM171.88 183.02h2.07v-5.1l4.71 5.1h1.63v-8.14h-2.07v4.74l-4.4-4.74h-1.94v8.14zM141.23 174.88l-3.99 8.13h2.14l.59-1.32h3.97l.59 1.32h2.27l-3.99-8.13h-1.58zm-.52 5.19l1.26-2.78 1.24 2.78h-2.5zM153.75 174.88h-6.92v1.66h2.37v6.48h2.19v-6.48h2.36v-1.66zM157.98 174.89h-2.19v8.13h2.19v-8.13zM160.47 178.95c0 2.49 1.77 4.26 4.45 4.26s4.44-1.77 4.44-4.26c0-2.49-1.76-4.26-4.44-4.26-2.68 0-4.45 1.77-4.45 4.26zm6.8 0c0 1.42-.87 2.54-2.35 2.54-1.49 0-2.37-1.12-2.37-2.54 0-1.43.88-2.54 2.37-2.54 1.49 0 2.35 1.11 2.35 2.54zM186.2 174.88l-3.98 8.13h2.14l.59-1.32h3.97l.59 1.32h2.27l-3.98-8.13h-1.6zm-.52 5.19l1.26-2.78 1.24 2.78h-2.5zM193.71 174.88v8.14h6.14v-1.66h-3.95v-6.48h-2.19zM124.14 187.68h-4.92v11.78h4.92c3.95 0 6.67-2.33 6.67-5.89.01-3.56-2.72-5.89-6.67-5.89zm0 9.73h-2.46v-7.68h2.46c2.56 0 4.02 1.58 4.02 3.84.01 2.26-1.46 3.84-4.02 3.84zM136.14 194.49h5.61v-2.07h-5.61v-2.67h6.32v-2.07h-8.78v11.78h9.02v-2.07h-6.56v-2.9zM157.47 187.68h-5.54v11.79h2.46v-3.96h3.07c2.82 0 4.78-1.46 4.78-3.91.01-2.44-1.96-3.92-4.77-3.92zm.02 5.77h-3.1v-3.72h3.1c1.35 0 2.11.71 2.11 1.84 0 1.13-.76 1.88-2.11 1.88zM168.19 187.68l-5.68 11.79H165l1.04-2.26h5.99l1.04 2.26h2.67l-5.7-11.79h-1.85zm-1.19 7.45l2.04-4.41 2.01 4.41H167zM188.45 191.59c0-2.43-1.96-3.91-4.78-3.91h-5.54v11.79h2.46v-3.96h2.58l2.63 3.96h2.82l-2.89-4.27c1.65-.54 2.72-1.82 2.72-3.61zm-4.76 1.86h-3.1v-3.72h3.1c1.35 0 2.11.71 2.11 1.84 0 1.13-.76 1.88-2.11 1.88zM194.27 187.68h-2.46v11.79h2.46v-11.79zM200.42 190.58c0-.66.57-1.04 1.89-1.04 1.3 0 2.34.49 3.17 1.42l1.61-1.67c-1.18-1.3-2.91-1.89-4.64-1.89-3 0-4.61 1.3-4.61 3.35 0 4.69 6.96 3.37 6.96 5.56 0 .9-.81 1.3-2.18 1.3-1.59 0-2.65-.47-3.57-1.42l-1.58 1.65c1.23 1.37 3.15 1.91 5.04 1.91 3.15 0 4.9-1.42 4.9-3.58 0-4.65-6.99-3.4-6.99-5.59z" fill="#000"/><path stroke="#CCC" d="M-90.5-90.5h500v500h-500z"/></svg>