<svg xmlns="http://www.w3.org/2000/svg" width="320" height="320" fill="none"><path fill="#fff" d="M0 0h320v320H0z"/><path d="M-91.003-91.003h501v501h-501v-501z" fill="#fff"/><path d="M-91.003-91.003v-1h-1v1h1zm501 0h1v-1h-1v1zm0 501v1h1v-1h-1zm-501 0h-1v1h1v-1zm0-500h501v-2h-501v2zm500-1v501h2v-501h-2zm1 500h-501v2h501v-2zm-500 1v-501h-2v501h2z" fill="#CCC"/><path d="M79.86 168.72c2.03-2.75 3.23-6.15 3.23-9.83 0-9.16-7.46-16.62-16.62-16.62s-16.62 7.46-16.62 16.62 7.45 16.62 16.62 16.62c3.6 0 6.94-1.15 9.67-3.11l4.16 4.16 3.7-3.69-4.14-4.15zm-3.76-3.75l-6.14-6.14-3.69 3.7 6.11 6.11a11.336 11.336 0 01-5.9 1.65c-6.28 0-11.39-5.11-11.39-11.39s5.1-11.39 11.39-11.39c6.28 0 11.39 5.11 11.39 11.39-.01 2.22-.66 4.31-1.77 6.07zM233.35 143.61v5.06h-10.17v26.28h-5.06v-26.28h-10.17v-5.06h25.4zM150.67 143.61h-6.43l-12.22 31.33h5.61l2.29-5.88h15.07l2.29 5.88h5.61l-12.22-31.33zm-8.71 20.44l5.5-14.38 5.49 14.38h-10.99zM269.14 148.67l-17.36 21.22h17.36v5.06H245.1v-5.49l17.49-20.79h-16.7v-5.01h23.25v5.01zM121.15 143.61v19.84c0 6.8-5.16 12.33-11.96 12.33-6.8 0-12.04-5.53-12.04-12.33v-19.84h4.98v19.84c-.12 3.92 3.14 7.1 7.06 7.1 3.91 0 6.95-3.18 6.87-7.1v-19.84h5.09zM190.78 164.36c3.64-1.81 6.12-5.54 6.12-9.85 0-5.81-4.79-10.78-10.76-10.9H174.4v31.34h5.06v-9.55h5.14l11.03 11.32 3.72-3.67-8.57-8.69zm-5.02-3.97h-6.29v-11.75h6.29c3.26.07 5.92 2.68 5.92 5.88-.01 3.19-2.66 5.8-5.92 5.87z" fill="#000"/><path stroke="#CCC" d="M-90.5-90.5h500v500h-500z"/></svg>